<svg width="13" height="13" viewBox="0 0 13 13" fill="none" xmlns="http://www.w3.org/2000/svg">
<g clip-path="url(#clip0_231_250)">
<path d="M12.101 5.22567C11.9342 5.11363 11.7834 4.97924 11.6531 4.82622C11.6628 4.61316 11.7056 4.40292 11.7801 4.20309C11.92 3.72941 12.0942 3.13989 11.7584 2.6786C11.4201 2.21364 10.8022 2.19803 10.3057 2.18534C10.0969 2.19368 9.88794 2.17122 9.68563 2.11868C9.5744 1.9442 9.48947 1.75431 9.43358 1.55507C9.26793 1.08331 9.06157 0.496138 8.50892 0.316542C7.97267 0.142257 7.49142 0.473384 7.06708 0.764571C6.89655 0.900728 6.7051 1.00835 6.50015 1.08329C6.29509 1.00844 6.10353 0.900792 5.93298 0.764571C5.50862 0.473129 5.02724 0.143046 4.49112 0.316542C3.93862 0.496138 3.73233 1.08301 3.56649 1.55488C3.5107 1.75311 3.42671 1.9423 3.31708 2.11663C3.11413 2.17078 2.90417 2.19387 2.69431 2.18515C2.19788 2.19782 1.57991 2.21345 1.24164 2.67839C0.905803 3.13993 1.08005 3.72945 1.21998 4.20318C1.29355 4.40196 1.33675 4.61069 1.34812 4.82236C1.21838 4.97753 1.0671 5.11337 0.898894 5.22569C0.498333 5.53116 0 5.91146 0 6.49996C0 7.08845 0.498333 7.46875 0.898979 7.77425C1.06584 7.88629 1.21657 8.02068 1.34688 8.1737C1.3372 8.38675 1.29438 8.59697 1.21993 8.79682C1.08002 9.27051 0.90576 9.86007 1.2416 10.3213C1.57987 10.7863 2.19784 10.8019 2.69429 10.8146C2.90315 10.8063 3.11206 10.8287 3.31437 10.8813C3.4256 11.0557 3.51053 11.2457 3.56642 11.4449C3.73226 11.9167 3.93856 12.5038 4.49118 12.6835C4.58909 12.7156 4.69149 12.7319 4.79453 12.7319C5.21044 12.7319 5.59023 12.4708 5.93302 12.2354C6.10356 12.0992 6.29501 11.9916 6.49998 11.9166C6.70504 11.9915 6.89659 12.0991 7.06719 12.2353C7.49153 12.5268 7.97278 12.8566 8.50903 12.6834C9.06153 12.5038 9.26782 11.9169 9.43366 11.445C9.48945 11.2468 9.57344 11.0576 9.68307 10.8833C9.88602 10.8291 10.096 10.806 10.3058 10.8148C10.8023 10.8021 11.4202 10.7865 11.7585 10.3215C12.0943 9.86 11.9201 9.27044 11.7802 8.79674C11.7066 8.59795 11.6634 8.38923 11.652 8.17756C11.7818 8.02238 11.933 7.88654 12.1013 7.77423C12.5016 7.46875 13 7.08845 13 6.49996C13 5.91146 12.5017 5.53116 12.101 5.22567ZM8.91424 5.52877L6.20589 8.2371C5.99444 8.44862 5.65156 8.44868 5.44004 8.23723C5.44 8.23718 5.43996 8.23714 5.43991 8.2371L4.08574 6.88293C3.87154 6.67409 3.86719 6.33115 4.07602 6.11695C4.28485 5.90274 4.62779 5.89839 4.84199 6.10722C4.84528 6.11042 4.84852 6.11366 4.85172 6.11695L5.8229 7.08815L8.14826 4.76277C8.35709 4.54857 8.70003 4.54424 8.91424 4.75307C9.12844 4.9619 9.13277 5.30484 8.92394 5.51905C8.92074 5.52236 8.9175 5.52558 8.91424 5.52877Z" fill="#405FF2"/>
</g>
<defs>
<clipPath id="clip0_231_250">
<rect width="13" height="13" fill="white"/>
</clipPath>
</defs>
</svg>
